<svg width="50" height="50" viewBox="0 0 50 50" fill="none" xmlns="http://www.w3.org/2000/svg">
<g clip-path="url(#clip0_1_56)">
<path d="M33.6426 1.77293C33.6426 0.787501 34.5784 0 35.7422 0C36.9059 0 37.8418 0.804346 37.8418 1.77293V9.56371C37.8418 10.5491 36.9059 11.3366 35.7422 11.3366C34.5784 11.3366 33.6426 10.5365 33.6426 9.56371V1.77293ZM12.0728 1.77293C12.0728 0.787501 13.0086 0 14.1724 0C15.3361 0 16.272 0.804346 16.272 1.77293V9.56371C16.272 10.5491 15.3361 11.3366 14.1724 11.3366C13.0086 11.3366 12.0728 10.5365 12.0728 9.56371V1.77293ZM2.75065 46.012C2.75065 46.311 2.86458 46.5973 3.0599 46.7995C3.25521 47.0016 3.51156 47.1153 3.8208 47.1153H46.1507C46.4396 47.1153 46.7163 46.9974 46.9076 46.7995C47.1029 46.5973 47.2127 46.332 47.2127 46.012C47.2127 33.8499 47.2127 20.694 47.2127 8.53196C47.2127 8.22875 47.0988 7.9466 46.9076 7.76131C46.7122 7.55917 46.4559 7.44546 46.167 7.44546H42.7775C42.1305 7.44546 41.6138 6.45582 41.6138 5.78624C41.6138 5.11665 42.1305 4.58182 42.7775 4.58182H46.6064C47.5423 4.58182 48.3846 4.98189 48.999 5.61779C49.6134 6.25368 50 7.13804 50 8.09399V46.4878C50 47.4564 49.6134 48.3281 48.999 48.964C48.3846 49.5999 47.5301 50 46.6064 50H3.39355C2.45768 50 1.6154 49.5999 1.00098 48.964C0.386556 48.3281 0 47.4438 0 46.4878V8.09399C0 7.12541 0.386556 6.25368 1.00098 5.61779C1.6154 4.98189 2.46989 4.58182 3.39355 4.58182H7.49919C8.14616 4.58182 8.66292 5.11665 8.66292 5.78624C8.66292 6.45582 8.14616 7.44546 7.49919 7.44546H3.83708C3.54818 7.44546 3.27148 7.56338 3.07617 7.76131C2.88086 7.96345 2.76693 8.23296 2.76693 8.54881C2.76693 20.6814 2.75065 33.8289 2.75065 46.012ZM20.9757 7.42862C20.3288 7.42862 19.812 6.43898 19.812 5.76939C19.812 5.09981 20.3288 4.56498 20.9757 4.56498H28.7964C29.4434 4.56498 29.9601 5.09981 29.9601 5.76939C29.9601 6.43898 29.4434 7.42862 28.7964 7.42862H20.9757Z" fill="#393939"/>
<path d="M21.4559 19.658C20.7804 19.2917 20.2881 18.879 19.9829 18.4284C19.5597 17.8093 19.3481 17.0976 19.3481 16.2975C19.3481 14.9751 19.9585 13.8929 21.1751 13.0506C22.1273 12.4063 23.3805 12.082 24.9471 12.082C27.0182 12.082 28.5441 12.4821 29.5329 13.2907C30.5216 14.095 31.018 15.1099 31.018 16.327C31.018 17.0429 30.8187 17.704 30.424 18.3231C30.1269 18.7821 29.659 19.2285 29.0242 19.658C29.8584 20.0665 30.485 20.6098 30.896 21.2878C31.311 21.9658 31.5145 22.7112 31.5145 23.5324C31.5145 24.3241 31.3395 25.0611 30.9814 25.7475C30.6234 26.4381 30.188 26.9645 29.6753 27.3393C29.1585 27.7141 28.5115 27.9879 27.7466 28.1647C26.9775 28.3416 26.1556 28.43 25.2807 28.43C23.6409 28.43 22.3917 28.2321 21.525 27.8363C20.6624 27.4404 20.0073 26.855 19.5556 26.0886C19.104 25.3179 18.8802 24.4589 18.8802 23.5113C18.8802 22.5849 19.0918 21.7973 19.515 21.153C19.93 20.5087 20.577 20.0118 21.4559 19.658ZM23.3887 16.5544C23.3887 17.0976 23.5596 17.5398 23.8932 17.8767C24.2269 18.2136 24.6745 18.3778 25.236 18.3778C25.7283 18.3778 26.1352 18.2136 26.4526 17.8809C26.7741 17.5482 26.9328 17.1229 26.9328 16.6007C26.9328 16.0532 26.7659 15.611 26.4363 15.2657C26.1027 14.9246 25.6754 14.752 25.1627 14.752C24.6419 14.752 24.2106 14.9162 23.8851 15.2531C23.5555 15.59 23.3887 16.0237 23.3887 16.5544ZM23.1526 23.3597C23.1526 24.0588 23.3602 24.6273 23.7752 25.0737C24.1902 25.5159 24.6663 25.7349 25.1994 25.7349C25.7161 25.7349 26.1759 25.5117 26.5828 25.0611C26.9897 24.6105 27.1932 24.0419 27.1932 23.3471C27.1932 22.648 26.9897 22.0753 26.5788 21.6289C26.1637 21.1825 25.6876 20.9593 25.1505 20.9593C24.6134 20.9593 24.1496 21.1783 23.7549 21.6078C23.352 22.0416 23.1526 22.627 23.1526 23.3597Z" fill="#393939"/>
<path d="M13.676 31.698L11.5072 39.2571V43.5442H8.75653V39.2529L6.65692 31.6938H9.38723C9.8104 34.0141 10.0545 35.5681 10.1115 36.3682C10.2824 35.1049 10.5591 33.5467 10.9416 31.6938H13.676V31.698ZM14.5834 31.698H19.5475V34.0647H17.5659V36.3261H19.4173V38.5707H17.5659V41.1775H19.751V43.5442H14.5834V31.698ZM26.2655 31.698L27.9663 43.5442H25.1994L25.0366 41.4175H23.4172L23.2544 43.5442H20.4468L21.9564 31.698H26.2655ZM24.9593 39.3203C24.8169 37.9769 24.3937 36.3135 24.235 34.33C23.9421 36.6083 23.4823 38.2675 23.4009 39.3203H24.9593ZM28.6092 31.698H30.7129C32.1167 31.698 33.0648 31.7527 33.5653 31.8664C34.0617 31.9801 34.4686 32.2665 34.7819 32.7255C35.0952 33.1845 35.2539 33.9215 35.2539 34.928C35.2539 35.8502 35.14 36.4693 34.9203 36.7851C34.7005 37.101 34.2652 37.2905 33.6141 37.3537C34.2041 37.5053 34.5988 37.7074 34.8023 37.9643C35.0016 38.217 35.1278 38.4528 35.1766 38.6633C35.2254 38.8739 35.2499 39.4593 35.2499 40.4152V43.5442H32.6213V39.6025C32.6213 38.9666 32.5724 38.5749 32.4748 38.4233C32.3812 38.2717 31.6529 38.1959 31.246 38.1959V43.54H28.6052V31.698H28.6092ZM31.246 33.7194V36.3556C31.5796 36.3556 32.2876 36.3093 32.4219 36.2124C32.5562 36.1156 32.6213 35.8081 32.6213 35.2859V34.6332C32.6213 34.2584 32.5562 34.0099 32.43 33.892C32.2998 33.7783 31.5877 33.7194 31.246 33.7194Z" fill="#343A3B"/>
<path d="M43.099 35.2817H40.3361V34.4058C40.3361 33.9973 40.2995 33.7362 40.2303 33.6225C40.1611 33.5088 40.0431 33.4541 39.8804 33.4541C39.7013 33.4541 39.5671 33.5299 39.4735 33.6815C39.3799 33.8331 39.3351 34.0563 39.3351 34.3637C39.3351 34.7595 39.388 35.0543 39.4938 35.2565C39.5955 35.4544 39.8763 35.6944 40.3361 35.9808C41.6545 36.7978 42.4886 37.4674 42.8304 37.9896C43.1763 38.5118 43.3472 39.354 43.3472 40.5121C43.3472 41.3543 43.2495 41.9776 43.0583 42.3777C42.867 42.7777 42.5008 43.1104 41.9556 43.3799C41.4103 43.6537 40.7756 43.7884 40.0513 43.7884C39.2537 43.7884 38.5783 43.6326 38.0127 43.321C37.4512 43.0094 37.085 42.6135 36.91 42.1292C36.735 41.6449 36.6496 40.9585 36.6496 40.0741V39.2993H39.4124V40.7395C39.4124 41.1817 39.4491 41.468 39.5264 41.5944C39.6037 41.7207 39.742 41.7839 39.9373 41.7839C40.1367 41.7839 40.2832 41.7039 40.3768 41.5438C40.4744 41.3838 40.5233 41.1438 40.5233 40.8321C40.5233 40.1373 40.4297 39.6783 40.2466 39.4677C40.0553 39.2529 39.5915 38.895 38.855 38.3896C38.1185 37.8843 37.6302 37.5137 37.3901 37.2821C37.1501 37.0505 36.9507 36.7346 36.7961 36.3303C36.6374 35.9261 36.5601 35.4081 36.5601 34.7806C36.5601 33.8752 36.6699 33.2098 36.8937 32.7929C37.1175 32.3718 37.4756 32.0475 37.9761 31.8117C38.4766 31.5758 39.0747 31.4579 39.7827 31.4579C40.5558 31.4579 41.2109 31.5885 41.7562 31.8454C42.2974 32.1065 42.6595 32.4307 42.8345 32.8224C43.0094 33.214 43.099 33.8794 43.099 34.8227V35.2817Z" fill="#373E40"/>
</g>
<defs>
<clipPath id="clip0_1_56">
<rect width="50" height="50" fill="white"/>
</clipPath>
</defs>
</svg>
