<svg width="50" height="50" viewBox="0 0 50 50" fill="none" xmlns="http://www.w3.org/2000/svg">
<path fill-rule="evenodd" clip-rule="evenodd" d="M25 2.60416C17.2437 2.60416 10.9375 8.96666 10.9375 16.8146C10.9375 19.4729 12.1083 22.7708 13.8125 26.0604C17.5646 33.3042 23.8146 40.6 23.8146 40.6C24.1104 40.9458 24.5437 41.1458 25 41.1458C25.4562 41.1458 25.8896 40.9458 26.1854 40.6C26.1854 40.6 32.4354 33.3042 36.1875 26.0604C37.8917 22.7708 39.0625 19.4729 39.0625 16.8146C39.0625 8.96666 32.7562 2.60416 25 2.60416ZM25 5.72916C31.0417 5.72916 35.9375 10.7021 35.9375 16.8146C35.9375 19.8687 34 23.8479 31.7625 27.5583C29.3625 31.5375 26.5542 35.1917 25 37.125C23.4458 35.1917 20.6375 31.5375 18.2375 27.5583C16 23.8479 14.0625 19.8687 14.0625 16.8146C14.0625 10.7021 18.9583 5.72916 25 5.72916Z" fill="#393939"/>
<path fill-rule="evenodd" clip-rule="evenodd" d="M25 10.9375C21.8375 10.9375 19.2708 13.5042 19.2708 16.6667C19.2708 19.8292 21.8375 22.3958 25 22.3958C28.1625 22.3958 30.7291 19.8292 30.7291 16.6667C30.7291 13.5042 28.1625 10.9375 25 10.9375ZM25 14.0625C26.4375 14.0625 27.6041 15.2292 27.6041 16.6667C27.6041 18.1042 26.4375 19.2708 25 19.2708C23.5625 19.2708 22.3958 18.1042 22.3958 16.6667C22.3958 15.2292 23.5625 14.0625 25 14.0625Z" fill="#393939"/>
<path fill-rule="evenodd" clip-rule="evenodd" d="M34.9667 36.2021C36.6604 36.7104 38.0562 37.3396 39.0208 38.0771C39.6458 38.5521 40.1041 39.0167 40.1041 39.5833C40.1041 39.9167 39.9146 40.2188 39.6479 40.5208C39.2062 41.0188 38.55 41.4667 37.7375 41.8833C34.8666 43.3521 30.225 44.2708 25 44.2708C19.775 44.2708 15.1333 43.3521 12.2625 41.8833C11.45 41.4667 10.7937 41.0188 10.3521 40.5208C10.0854 40.2188 9.89581 39.9167 9.89581 39.5833C9.89581 39.0167 10.3541 38.5521 10.9791 38.0771C11.9437 37.3396 13.3396 36.7104 15.0333 36.2021C15.8583 35.9542 16.3271 35.0813 16.0791 34.2563C15.8312 33.4292 14.9583 32.9604 14.1333 33.2083C11.5541 33.9854 9.54998 35.05 8.34581 36.2271C7.28748 37.2583 6.77081 38.4125 6.77081 39.5833C6.77081 41.0458 7.5979 42.5042 9.27915 43.7208C12.2291 45.8542 18.1541 47.3958 25 47.3958C31.8458 47.3958 37.7708 45.8542 40.7208 43.7208C42.4021 42.5042 43.2291 41.0458 43.2291 39.5833C43.2291 38.4125 42.7125 37.2583 41.6541 36.2271C40.45 35.05 38.4458 33.9854 35.8666 33.2083C35.0416 32.9604 34.1687 33.4292 33.9208 34.2563C33.6729 35.0813 34.1416 35.9542 34.9667 36.2021Z" fill="#393939"/>
</svg>
