<svg width="93" height="60" viewBox="0 0 93 60" fill="none" xmlns="http://www.w3.org/2000/svg">
<path d="M82.9622 39.7899L82.9118 39.739C82.1179 38.9426 79.6856 36.3706 78.8654 35.2466C77.9025 33.8442 78.1246 32.9252 78.8462 31.5482C79.758 29.8082 81.585 27.1391 83.5185 24.3127C89.7113 15.2631 93.7095 8.99824 92.8865 4.54823L92.443 2.17134L69.5726 2.18213C69.4924 2.4165 68.299 8.11318 63.2627 17.8135C59.6108 24.847 57.2154 27.0566 56.3717 27.4467L56.2412 27.4035C55.9666 27.035 55.487 26.0405 55.2897 23.477C55.0839 20.7917 55.2663 17.5406 55.443 14.3966C55.6494 10.7098 55.8275 7.5257 55.4011 5.24749L54.7065 1.53606C53.8671 1.39035 50.7941 0.102061 42.2322 0.00414825C34.8197 -0.0783452 32.6421 1.08504 31.5728 2.11043L28.0358 5.50191L32.5066 7.13636C34.208 7.75853 34.7728 8.4763 35.2362 12.0343C35.5384 14.3534 35.6966 18.2506 35.3703 21.73C34.9013 26.7189 33.7766 27.6472 33.7185 27.6965C33.5248 27.6248 31.8822 26.8438 29.0306 20.2929C27.0524 15.7496 25.3183 10.3752 24.0511 6.45097C22.6008 1.95701 22.8619 2.91378 22.1261 0.790534L0 0.789763L1.43184 4.81421C7.40115 21.6082 12.878 34.7231 20.2075 44.1428C28.3054 54.55 38.3695 59.9992 51.9258 59.9992H54.6504V57.0387C54.6504 54.2709 54.8611 52.278 55.3131 50.7669C55.5891 49.8464 55.956 49.0854 56.3412 48.2875C56.9131 47.1125 57.4722 46.6091 57.7773 46.5343C58.054 46.4657 58.5408 46.6862 59.08 47.1233C60.6282 48.3777 61.8571 50.026 63.1584 51.7715C65.0359 54.2902 66.9771 56.8938 70.0572 58.5984C71.7402 59.5297 74.8253 60 76.5232 60C76.9723 60 92.9801 59.9992 93 59.9992L92.8829 56.9169C92.7084 52.3081 89.37 46.5451 82.9622 39.7899ZM76.6289 54.0782H76.5849C75.4142 54.099 73.1799 53.6819 72.53 53.3227C70.4822 52.1893 69.0511 50.2689 67.3929 48.0454C65.9377 46.0925 64.4328 44.0734 62.3375 42.3765C60.6431 41.0034 59.1042 40.6017 57.8823 40.6017C57.3942 40.6017 56.9557 40.6657 56.5796 40.7582C55.1613 41.1051 53.1327 42.2138 51.52 45.5282C51.0651 46.4711 50.5493 47.5389 50.1314 48.9359C49.6936 50.3976 49.4212 52.022 49.2913 53.998C39.0754 53.3674 31.1038 48.9759 24.3689 40.3203C18.1073 32.2722 13.181 21.0153 7.96381 6.70847C8.34128 6.70847 17.8001 6.71002 18.3585 6.71002C18.5295 7.23196 18.714 7.80402 18.9098 8.41C20.2756 12.6434 22.1467 18.4403 24.3512 23.3837C27.5079 30.4627 30.3907 33.6198 33.6979 33.6198C35.349 33.6198 36.8298 32.8597 37.9799 31.4203C39.6197 29.3687 40.5718 25.9826 40.8911 21.0677C41.143 17.1921 40.9089 13.3318 40.6322 11.2048C40.4037 9.45466 40.078 7.61744 39.2833 5.97143C42.6699 5.80567 47.2046 6.0678 50.0775 6.51573C50.3386 8.06075 50.1683 11.0976 50.0037 14.0357C49.6056 21.1333 49.1948 28.4574 52.6524 31.8844C53.2604 32.4873 53.9054 32.8103 53.9239 32.8234L55.6835 33.4101C56.3625 33.1827 60.2955 35.3507 67.7427 21.2289C70.1289 16.7041 72.3504 11.49 73.5467 8.08465C76.321 8.07848 85.7727 8.09005 86.8831 8.09159C85.3101 11.8531 81.5822 17.2183 79.1456 20.7794C77.0213 23.8833 75.1872 26.5639 74.1108 28.6178C72.1113 32.4333 72.4476 35.834 74.5301 38.8339L74.5628 38.8801C75.725 40.4876 78.595 43.4635 79.1903 44.0633C83.5029 48.6128 85.5811 51.881 86.5702 54.0774H76.6289V54.0782Z" fill="#393939"/>
</svg>
