<svg width="70" height="70" viewBox="0 0 70 70" fill="none" xmlns="http://www.w3.org/2000/svg">
<g clip-path="url(#clip0_8_8)">
<mask id="mask0_8_8" style="mask-type:luminance" maskUnits="userSpaceOnUse" x="0" y="0" width="70" height="70">
<path d="M69.4954 0H0.92395V70H69.4954V0Z" fill="white"/>
</mask>
<g mask="url(#mask0_8_8)">
<path fill-rule="evenodd" clip-rule="evenodd" d="M35.2096 70C54.1451 70 69.4953 54.3299 69.4953 35C69.4953 15.6701 54.1451 0 35.2096 0C16.2742 0 0.92395 15.6701 0.92395 35C0.92395 54.3299 16.2742 70 35.2096 70ZM48.7612 20.295C45.2329 16.6887 40.5403 14.702 35.541 14.7C25.2405 14.7 16.8562 23.2576 16.8525 33.7765C16.8513 37.1391 17.7118 40.4212 19.3469 43.3138L16.6953 53.2L26.6023 50.5474C29.3319 52.0675 32.4056 52.8683 35.5329 52.8696H35.5403C45.8402 52.8696 54.2245 44.3107 54.2289 33.7924C54.2319 28.694 52.2901 23.9012 48.7612 20.295ZM35.5416 49.6472H35.5353C32.7479 49.646 30.014 48.8814 27.6295 47.4369L27.062 47.0933L21.1828 48.6675L22.7518 42.8161L22.3826 42.2157C20.8279 39.6911 20.0066 36.7737 20.0079 33.7772C20.011 25.0344 26.9796 17.9218 35.5472 17.9218C39.696 17.9231 43.5959 19.5749 46.5286 22.5721C49.4615 25.569 51.0753 29.5529 51.0741 33.79C51.0709 42.5341 44.1029 49.6472 35.5416 49.6472ZM44.0613 37.7712C43.5942 37.5325 41.2988 36.3796 40.8703 36.2204C40.4426 36.0612 40.1308 35.9817 39.8196 36.4591C39.5083 36.9366 38.6135 38.0099 38.341 38.3282C38.0685 38.6464 37.7961 38.6859 37.3295 38.4472C37.2532 38.4082 37.1491 38.3621 37.0206 38.3051C36.3629 38.0139 35.0661 37.4399 33.5743 36.0811C32.1862 34.8167 31.2489 33.2559 30.9763 32.779C30.7039 32.3016 30.9471 32.0438 31.1809 31.8063C31.321 31.6637 31.4821 31.4635 31.6431 31.2634C31.7233 31.1636 31.8036 31.0638 31.8812 30.9711C32.0791 30.7352 32.1651 30.5561 32.2818 30.3135C32.3028 30.27 32.3246 30.2243 32.3483 30.176C32.5042 29.8578 32.4263 29.5796 32.3096 29.3409C32.2318 29.1815 31.7892 28.0816 31.3878 27.0845C31.1883 26.5888 30.9989 26.1183 30.8698 25.8014C30.5351 24.9809 30.1959 24.983 29.9238 24.9847C29.8876 24.985 29.8526 24.9852 29.8191 24.9834C29.5471 24.9694 29.2353 24.9669 28.9242 24.9669C28.6129 24.9669 28.1072 25.0859 27.6788 25.5634C27.6512 25.5942 27.6203 25.6277 27.5869 25.6642C27.1003 26.1946 26.0443 27.3454 26.0443 29.5401C26.0443 31.8808 27.7093 34.1424 27.9496 34.4688L27.9513 34.4711C27.9665 34.4918 27.9936 34.5317 28.0325 34.5885C28.5899 35.4047 31.5489 39.7383 35.9283 41.6689C37.0428 42.1603 37.912 42.4533 38.5905 42.6728C39.7092 43.0357 40.7269 42.9848 41.5319 42.862C42.4293 42.7251 44.2945 41.7091 44.6836 40.5957C45.0728 39.4824 45.0728 38.5274 44.9562 38.3288C44.862 38.1681 44.6413 38.059 44.3143 37.8976C44.2359 37.8589 44.1515 37.8174 44.0613 37.7712Z" fill="#393939"/>
</g>
</g>
<defs>
<clipPath id="clip0_8_8">
<rect width="70" height="70" fill="white"/>
</clipPath>
</defs>
</svg>
